<svg width="60" height="60" viewBox="0 0 60 60" fill="none" xmlns="http://www.w3.org/2000/svg">
  <rect width="60" height="60" rx="14" fill="#00E3AA"/>
  <path d="M53.9123 46.4867C54.7422 45.0044 54.9785 43.2715 54.5747 41.6273C54.4589 41.1729 54.2989 40.7304 54.0969 40.3059C54.033 40.1667 53.9605 40.0315 53.8797 39.901L47.2989 27.6993H40.566L47.4509 40.4871C47.6671 40.8588 47.7807 41.2793 47.7807 41.7073C47.7807 42.1352 47.6671 42.5558 47.4509 42.9274C47.2403 43.2747 46.9415 43.5623 46.5836 43.7622C46.2257 43.962 45.8211 44.0673 45.4093 44.0677H37.5579C37.4711 45.2582 37.0944 46.4108 36.4594 47.4288C35.8245 48.4468 34.95 49.3005 33.9092 49.9181H48.3414C49.3049 49.8552 50.2426 49.586 51.0888 49.1295C52.283 48.5523 53.2683 47.63 53.9123 46.4867Z" fill="black"/>
  <path d="M17.0015 19.7176H23.7343L27.0899 13.5901C27.3738 13.0613 27.7994 12.6186 28.3209 12.3097C28.8424 12.0009 29.44 11.8377 30.0491 11.8377C30.6582 11.8377 31.2557 12.0009 31.7772 12.3097C32.2987 12.6186 32.7244 13.0613 33.0083 13.5901L36.2661 19.7176H42.999L38.2208 10.8514C37.4286 9.38651 36.2448 8.16096 34.7965 7.30627C33.3483 6.45158 31.6902 6 30.0002 6C28.3102 6 26.6521 6.45158 25.2039 7.30627C23.7556 8.16096 22.5719 9.38651 21.7796 10.8514L17.0015 19.7176Z" fill="black"/>
  <path d="M22.4307 26.6337C22.5013 25.4481 22.8631 24.2968 23.4852 23.2781C24.1074 22.2594 24.9713 21.4035 26.0035 20.7833H12.9722V26.6337H22.4307Z" fill="black"/>
  <path d="M23.5054 27.06V43.0447H26.5677C27.2064 43.0377 27.8251 42.8255 28.3292 42.4405C28.8332 42.0556 29.1948 41.5192 29.3586 40.9134C29.4245 40.6809 29.4574 40.4407 29.4563 40.1994V30.6086C29.4592 29.5674 29.8804 28.5693 30.6286 27.8311C31.3769 27.0929 32.3916 26.6741 33.4526 26.6657H47.0812V20.7833H29.8907C28.1962 20.7861 26.5721 21.4487 25.3749 22.6255C24.1778 23.8023 23.5054 25.3972 23.5054 27.06Z" fill="black"/>
  <path d="M5.90255 40.3059C5.7005 40.7303 5.54049 41.1728 5.42473 41.6273C5.02132 43.275 5.25747 45.0111 6.08716 46.4973C6.73285 47.6366 7.71802 48.555 8.91061 49.1294C9.75678 49.5859 10.6946 49.8551 11.6581 49.918H29.9996C31.7277 49.918 33.385 49.2443 34.6069 48.0453C35.8288 46.8462 36.5153 45.2199 36.5153 43.5241V27.6886H33.4095C32.646 27.7079 31.92 28.0178 31.3851 28.5527C30.8501 29.0876 30.548 29.8057 30.5426 30.5552V40.146C30.5397 41.187 30.1163 42.1845 29.3651 42.9196C28.6139 43.6548 27.5964 44.0676 26.5355 44.0676H14.6444C14.2326 44.0672 13.828 43.962 13.4701 43.7621C13.1123 43.5622 12.8134 43.2746 12.6028 42.9273C12.3867 42.5537 12.2732 42.1315 12.2732 41.7018C12.2732 41.2722 12.3867 40.85 12.6028 40.4764L19.4877 27.6886H12.7006L6.11974 39.8902C6.04372 40.0394 5.96771 40.1673 5.90255 40.3059Z" fill="black"/>
</svg>
